<svg id="visual" viewBox="0 0 900 600" xmlns="http://www.w3.org/2000/svg" xmlns:xlink="http://www.w3.org/1999/xlink" version="1.1"><rect x="0" y="0" width="900" height="600" fill="#10427b"></rect><path d="M0 438L21.5 428.2C43 418.3 86 398.7 128.8 386.5C171.7 374.3 214.3 369.7 257.2 366.8C300 364 343 363 385.8 370.2C428.7 377.3 471.3 392.7 514.2 396.5C557 400.3 600 392.7 642.8 391.7C685.7 390.7 728.3 396.3 771.2 395.3C814 394.3 857 386.7 878.5 382.8L900 379L900 601L878.5 601C857 601 814 601 771.2 601C728.3 601 685.7 601 642.8 601C600 601 557 601 514.2 601C471.3 601 428.7 601 385.8 601C343 601 300 601 257.2 601C214.3 601 171.7 601 128.8 601C86 601 43 601 21.5 601L0 601Z" fill="#14539a"></path><path d="M0 456L21.5 454.5C43 453 86 450 128.8 448.3C171.7 446.7 214.3 446.3 257.2 438.2C300 430 343 414 385.8 419.2C428.7 424.3 471.3 450.7 514.2 463.2C557 475.7 600 474.3 642.8 470.5C685.7 466.7 728.3 460.3 771.2 454.7C814 449 857 444 878.5 441.5L900 439L900 601L878.5 601C857 601 814 601 771.2 601C728.3 601 685.7 601 642.8 601C600 601 557 601 514.2 601C471.3 601 428.7 601 385.8 601C343 601 300 601 257.2 601C214.3 601 171.7 601 128.8 601C86 601 43 601 21.5 601L0 601Z" fill="#2d62a4"></path><path d="M0 508L21.5 500C43 492 86 476 128.8 472.8C171.7 469.7 214.3 479.3 257.2 481.8C300 484.3 343 479.7 385.8 483.2C428.7 486.7 471.3 498.3 514.2 502.7C557 507 600 504 642.8 504C685.7 504 728.3 507 771.2 499.2C814 491.3 857 472.7 878.5 463.3L900 454L900 601L878.5 601C857 601 814 601 771.2 601C728.3 601 685.7 601 642.8 601C600 601 557 601 514.2 601C471.3 601 428.7 601 385.8 601C343 601 300 601 257.2 601C214.3 601 171.7 601 128.8 601C86 601 43 601 21.5 601L0 601Z" fill="#4272ad"></path><path d="M0 542L21.5 541C43 540 86 538 128.8 529.8C171.7 521.7 214.3 507.3 257.2 503.2C300 499 343 505 385.8 512.5C428.7 520 471.3 529 514.2 528C557 527 600 516 642.8 510C685.7 504 728.3 503 771.2 503C814 503 857 504 878.5 504.5L900 505L900 601L878.5 601C857 601 814 601 771.2 601C728.3 601 685.7 601 642.8 601C600 601 557 601 514.2 601C471.3 601 428.7 601 385.8 601C343 601 300 601 257.2 601C214.3 601 171.7 601 128.8 601C86 601 43 601 21.5 601L0 601Z" fill="#5681b6"></path><path d="M0 567L21.5 561.7C43 556.3 86 545.7 128.8 542.5C171.7 539.3 214.3 543.7 257.2 545.8C300 548 343 548 385.8 544C428.7 540 471.3 532 514.2 535C557 538 600 552 642.8 555.2C685.7 558.3 728.3 550.7 771.2 544.3C814 538 857 533 878.5 530.5L900 528L900 601L878.5 601C857 601 814 601 771.2 601C728.3 601 685.7 601 642.8 601C600 601 557 601 514.2 601C471.3 601 428.7 601 385.8 601C343 601 300 601 257.2 601C214.3 601 171.7 601 128.8 601C86 601 43 601 21.5 601L0 601Z" fill="#6991be"></path></svg>