<svg id="visual" viewBox="0 0 900 675" width="900" height="675" xmlns="http://www.w3.org/2000/svg" xmlns:xlink="http://www.w3.org/1999/xlink" version="1.1"><rect x="0" y="0" width="900" height="675" fill="#10427b"></rect><path d="M0 352L16.7 351.3C33.3 350.7 66.7 349.3 100 350.3C133.3 351.3 166.7 354.7 200 358.2C233.3 361.7 266.7 365.3 300 370.2C333.3 375 366.7 381 400 385C433.3 389 466.7 391 500 388.2C533.3 385.3 566.7 377.7 600 382.3C633.3 387 666.7 404 700 410.8C733.3 417.7 766.7 414.3 800 414.5C833.3 414.7 866.7 418.3 883.3 420.2L900 422L900 676L883.3 676C866.7 676 833.3 676 800 676C766.7 676 733.3 676 700 676C666.7 676 633.3 676 600 676C566.7 676 533.3 676 500 676C466.7 676 433.3 676 400 676C366.7 676 333.3 676 300 676C266.7 676 233.3 676 200 676C166.7 676 133.3 676 100 676C66.7 676 33.3 676 16.7 676L0 676Z" fill="#6991be"></path><path d="M0 422L16.7 419.5C33.3 417 66.7 412 100 410C133.3 408 166.7 409 200 417.7C233.3 426.3 266.7 442.7 300 455.8C333.3 469 366.7 479 400 474.8C433.3 470.7 466.7 452.3 500 451.5C533.3 450.7 566.7 467.3 600 469C633.3 470.7 666.7 457.3 700 444.2C733.3 431 766.7 418 800 418.3C833.3 418.7 866.7 432.3 883.3 439.2L900 446L900 676L883.3 676C866.7 676 833.3 676 800 676C766.7 676 733.3 676 700 676C666.7 676 633.3 676 600 676C566.7 676 533.3 676 500 676C466.7 676 433.3 676 400 676C366.7 676 333.3 676 300 676C266.7 676 233.3 676 200 676C166.7 676 133.3 676 100 676C66.7 676 33.3 676 16.7 676L0 676Z" fill="#5681b6"></path><path d="M0 473L16.7 474.7C33.3 476.3 66.7 479.7 100 491.5C133.3 503.3 166.7 523.7 200 531.7C233.3 539.7 266.7 535.3 300 520.7C333.3 506 366.7 481 400 479.5C433.3 478 466.7 500 500 515.3C533.3 530.7 566.7 539.3 600 531.2C633.3 523 666.7 498 700 487.8C733.3 477.7 766.7 482.3 800 486.2C833.3 490 866.7 493 883.3 494.5L900 496L900 676L883.3 676C866.7 676 833.3 676 800 676C766.7 676 733.3 676 700 676C666.7 676 633.3 676 600 676C566.7 676 533.3 676 500 676C466.7 676 433.3 676 400 676C366.7 676 333.3 676 300 676C266.7 676 233.3 676 200 676C166.7 676 133.3 676 100 676C66.7 676 33.3 676 16.7 676L0 676Z" fill="#4272ad"></path><path d="M0 568L16.7 571.7C33.3 575.3 66.7 582.7 100 577.7C133.3 572.7 166.7 555.3 200 553.2C233.3 551 266.7 564 300 572.8C333.3 581.7 366.7 586.3 400 581.2C433.3 576 466.7 561 500 555.2C533.3 549.3 566.7 552.7 600 561.2C633.3 569.7 666.7 583.3 700 589C733.3 594.7 766.7 592.3 800 584.3C833.3 576.3 866.7 562.7 883.3 555.8L900 549L900 676L883.3 676C866.7 676 833.3 676 800 676C766.7 676 733.3 676 700 676C666.7 676 633.3 676 600 676C566.7 676 533.3 676 500 676C466.7 676 433.3 676 400 676C366.7 676 333.3 676 300 676C266.7 676 233.3 676 200 676C166.7 676 133.3 676 100 676C66.7 676 33.3 676 16.7 676L0 676Z" fill="#2d62a4"></path><path d="M0 608L16.7 602.7C33.3 597.3 66.7 586.7 100 581.5C133.3 576.3 166.7 576.7 200 577.7C233.3 578.7 266.7 580.3 300 579.7C333.3 579 366.7 576 400 584.5C433.3 593 466.7 613 500 613.8C533.3 614.7 566.7 596.3 600 595.3C633.3 594.3 666.7 610.7 700 618.7C733.3 626.7 766.7 626.3 800 617.5C833.3 608.7 866.7 591.3 883.3 582.7L900 574L900 676L883.3 676C866.7 676 833.3 676 800 676C766.7 676 733.3 676 700 676C666.7 676 633.3 676 600 676C566.7 676 533.3 676 500 676C466.7 676 433.3 676 400 676C366.7 676 333.3 676 300 676C266.7 676 233.3 676 200 676C166.7 676 133.3 676 100 676C66.7 676 33.3 676 16.7 676L0 676Z" fill="#14539a"></path></svg>